<svg width="600" height="600" viewBox="0 0 1100 1100" fill="none" xmlns="http://www.w3.org/2000/svg">
<path d="M581.53 804.57H531.48V783.4H480.35V758.37L442.27 724.69H384.61V627.48H309.54V507.16L214.88 590.9V750.67H164.84V821.45H144.16V801.69H107.17V841.21H606.55V826.71L581.53 804.57Z" fill="#F4F4F4"/>
<path d="M83.24 841.21H630.49" stroke="black" stroke-width="2" stroke-miterlimit="10"/>
<path d="M315.32 651.83H322.16V657.88H315.32V651.83Z" fill="white"/>
<path d="M331.96 651.83H338.8V657.88H331.96V651.83Z" fill="white"/>
<path d="M348.6 651.83H355.44V657.88H348.6V651.83Z" fill="white"/>
<path d="M315.32 668.14H322.16V674.19H315.32V668.14Z" fill="white"/>
<path d="M331.96 668.14H338.8V674.19H331.96V668.14Z" fill="white"/>
<path d="M348.6 668.14H355.44V674.19H348.6V668.14Z" fill="white"/>
<path d="M315.32 684.45H322.16V690.5H315.32V684.45Z" fill="white"/>
<path d="M331.96 684.45H338.8V690.5H331.96V684.45Z" fill="white"/>
<path d="M348.6 684.45H355.44V690.5H348.6V684.45Z" fill="white"/>
<path d="M315.32 700.76H322.16V706.81H315.32V700.76Z" fill="white"/>
<path d="M331.96 700.76H338.8V706.81H331.96V700.76Z" fill="white"/>
<path d="M348.6 700.76H355.44V706.81H348.6V700.76Z" fill="white"/>
<path d="M315.32 717.06H322.16V723.11H315.32V717.06Z" fill="white"/>
<path d="M331.96 717.06H338.8V723.11H331.96V717.06Z" fill="white"/>
<path d="M348.6 717.06H355.44V723.11H348.6V717.06Z" fill="white"/>
<path d="M315.32 733.37H322.16V739.42H315.32V733.37Z" fill="white"/>
<path d="M331.96 733.37H338.8V739.42H331.96V733.37Z" fill="white"/>
<path d="M348.6 733.37H355.44V739.42H348.6V733.37Z" fill="white"/>
<path d="M315.32 749.68H322.16V755.73H315.32V749.68Z" fill="white"/>
<path d="M331.96 749.68H338.8V755.73H331.96V749.68Z" fill="white"/>
<path d="M348.6 749.68H355.44V755.73H348.6V749.68Z" fill="white"/>
<path d="M315.32 765.99H322.16V772.04H315.32V765.99Z" fill="white"/>
<path d="M331.96 765.99H338.8V772.04H331.96V765.99Z" fill="white"/>
<path d="M348.6 765.99H355.44V772.04H348.6V765.99Z" fill="white"/>
<path d="M315.32 782.3H322.16V788.35H315.32V782.3Z" fill="white"/>
<path d="M331.96 782.3H338.8V788.35H331.96V782.3Z" fill="white"/>
<path d="M348.6 782.3H355.44V788.35H348.6V782.3Z" fill="white"/>
<path d="M495.25 433.58C495.25 433.58 635.11 496.11 715.51 614.91H740.71L691.51 671.3L535.51 566.91C535.51 566.91 439.51 552.44 410.71 530.91C381.91 509.38 427.8 428.34 427.8 428.34" fill="#EDEEEF"/>
<path d="M475.57 431.61L381.9 425.19L364.87 432.13L356.86 841.21H443.87L434.67 824.73L475.57 431.61Z" fill="#EDEEEF"/>
<path d="M405 234.88V249.67C405.001 255.225 406.864 260.619 410.293 264.99C413.721 269.361 418.515 272.456 423.91 273.78L447.44 279.57V221.76L427.85 217C425.137 216.338 422.309 216.299 419.579 216.888C416.848 217.476 414.287 218.676 412.088 220.397C409.888 222.118 408.108 224.316 406.88 226.824C405.652 229.333 405.01 232.087 405 234.88Z" fill="#EDEEEF"/>
<path d="M405 249.67C405.001 255.225 406.864 260.619 410.293 264.99C413.721 269.361 418.515 272.456 423.91 273.78L447.44 279.57" stroke="black" stroke-width="2" stroke-miterlimit="10"/>
<path d="M428.95 246.73C429.574 246.73 430.08 246.224 430.08 245.6C430.08 244.976 429.574 244.47 428.95 244.47C428.326 244.47 427.82 244.976 427.82 245.6C427.82 246.224 428.326 246.73 428.95 246.73Z" fill="black"/>
<path d="M411.52 246.73C412.144 246.73 412.65 246.224 412.65 245.6C412.65 244.976 412.144 244.47 411.52 244.47C410.896 244.47 410.39 244.976 410.39 245.6C410.39 246.224 410.896 246.73 411.52 246.73Z" fill="black"/>
<path d="M416.63 252.37V234.88" stroke="black" stroke-width="2" stroke-miterlimit="10"/>
<path d="M444.61 243.84V249.91C445.39 249.911 446.162 249.759 446.882 249.461C447.603 249.164 448.258 248.727 448.81 248.177C449.361 247.626 449.799 246.972 450.098 246.252C450.396 245.532 450.55 244.76 450.55 243.98C450.56 243.8 450.56 243.62 450.55 243.44C450.19 239.76 444.61 240.14 444.61 243.84Z" fill="#EDEEEF"/>
<path d="M444.61 249.91C445.39 249.911 446.162 249.759 446.882 249.461C447.603 249.164 448.258 248.727 448.81 248.177C449.361 247.626 449.799 246.972 450.098 246.252C450.396 245.531 450.55 244.76 450.55 243.98" stroke="black" stroke-width="2" stroke-miterlimit="10"/>
<path d="M421.42 254.41C422.157 255.145 423.155 255.557 424.195 255.557C425.235 255.557 426.233 255.145 426.97 254.41" stroke="#FD9EB0" stroke-width="1.5" stroke-miterlimit="10"/>
<path d="M416.63 252.38L420.46 253.32" stroke="black" stroke-width="2" stroke-miterlimit="10" stroke-linecap="round"/>
<path d="M495.25 340.91V433.58L364 465.84V362.64C363.998 344.857 369.96 327.587 380.932 313.591C391.903 299.596 407.251 289.684 424.52 285.44C432.931 283.372 441.703 283.243 450.171 285.065C458.64 286.886 466.583 290.61 473.4 295.954C480.217 301.298 485.729 308.122 489.52 315.911C493.311 323.699 495.28 332.248 495.28 340.91H495.25Z" fill="#FD9EB0"/>
<path d="M421.42 273C421.42 273 425.58 291 413.57 298.23C412.621 298.818 411.838 299.638 411.294 300.612C410.749 301.587 410.463 302.684 410.46 303.8C410.34 312.9 408.38 333.92 392.46 331.08C379.46 328.76 383.15 306.5 387.46 290.89C390.169 281.133 391.276 271.002 390.74 260.89C389.59 239.62 393.29 203.23 432.74 207.38C438.618 207.931 444.284 209.856 449.28 213C459.5 219.57 470.91 234.21 447.41 262.83" stroke="black" stroke-width="2" stroke-miterlimit="10"/>
<path d="M405 240.19C405 240.19 431.79 245.39 435.92 228.99C435.92 228.99 437.99 240.6 444.76 242.99" stroke="black" stroke-width="2" stroke-miterlimit="10"/>
<path d="M434.67 824.73L475.57 431.61" stroke="black" stroke-width="2" stroke-miterlimit="10"/>
<path d="M383.41 310.55C383.41 310.55 279.83 409.1 299.83 465.84C319.83 522.58 433.93 439.39 430.08 414.59L426.19 402.59C426.19 402.59 441.5 381 434.67 385C427.84 389 366.77 413.8 366.77 413.8L387.83 387.4" stroke="black" stroke-width="2" stroke-miterlimit="10"/>
<path d="M363.21 476.18V516.71C388.99 500.17 416.21 438.95 416.21 438.95C403.35 452.34 383.26 467 363.21 476.18V476.18Z" fill="black"/>
<path d="M444.1 285.79C444.1 285.79 499.03 282.59 531.57 298.59L512.37 240.87C512.37 240.87 494.23 227.65 507.03 225.52C507.03 225.52 501.7 211.12 505.43 211.65C509.16 212.18 577.97 255.65 583.3 310.55C588.63 365.45 495.3 364.19 495.3 364.19" stroke="black" stroke-width="2" stroke-miterlimit="10"/>
<path d="M751.16 197.24C726.012 197.24 701.429 204.697 680.519 218.669C659.61 232.64 643.312 252.498 633.689 275.732C624.065 298.965 621.547 324.531 626.453 349.196C631.359 373.86 643.469 396.516 661.251 414.299C679.034 432.081 701.69 444.191 726.354 449.097C751.019 454.003 776.585 451.485 799.818 441.861C823.052 432.238 842.91 415.94 856.881 395.031C870.853 374.121 878.31 349.538 878.31 324.39H751.16V197.24Z" fill="#EDEEEF"/>
<path d="M624 324.39C624 358.112 637.396 390.453 661.241 414.299C685.087 438.144 717.428 451.54 751.15 451.54C784.872 451.54 817.213 438.144 841.059 414.299C864.904 390.453 878.3 358.112 878.3 324.39" stroke="black" stroke-width="2" stroke-miterlimit="10"/>
<path d="M878.31 324.39H751.16L853.49 399.86C869.651 378.02 878.354 351.559 878.31 324.39V324.39Z" fill="black"/>
<path d="M751.16 158.79V324.39H916.76C916.76 280.47 899.313 238.349 868.257 207.293C837.201 176.237 795.08 158.79 751.16 158.79Z" fill="#FD9EB0"/>
<path d="M751.16 324.39H916.76" stroke="black" stroke-width="2" stroke-miterlimit="10"/>
<path d="M836.62 578.29H777.49V519.16H836.62V578.29Z" fill="#CBFFD5"/>
<path d="M852.83 523.61L807.05 477.83L761.27 523.61H852.83Z" fill="#CBFFD5"/>
<path d="M836.62 724.42H777.49V665.29H836.62V724.42Z" fill="#CBFFD5"/>
<path d="M852.83 669.74L807.05 623.96L761.27 669.74H852.83Z" fill="#CBFFD5"/>
<path d="M184.21 244.43C173.073 244.411 162.384 248.817 154.495 256.678C146.605 264.54 142.161 275.213 142.14 286.35L226.14 286.5C226.149 280.984 225.072 275.521 222.97 270.422C220.868 265.323 217.782 260.688 213.888 256.781C209.994 252.874 205.37 249.773 200.277 247.654C195.185 245.535 189.726 244.439 184.21 244.43V244.43Z" fill="#D1F6FF"/>
<path d="M271.68 262.64C268.534 262.632 265.418 263.244 262.509 264.441C259.601 265.638 256.956 267.397 254.727 269.616C252.498 271.836 250.729 274.473 249.52 277.377C248.31 280.281 247.685 283.394 247.68 286.54L295.56 286.62C295.571 280.274 293.061 274.184 288.583 269.687C284.106 265.191 278.026 262.656 271.68 262.64V262.64Z" fill="#D1F6FF"/>
<path d="M226.2 242.59C214.553 242.569 203.375 247.174 195.124 255.394C186.873 263.613 182.224 274.773 182.2 286.42L270.03 286.58C270.049 274.935 265.442 263.76 257.223 255.51C249.004 247.261 237.845 242.614 226.2 242.59V242.59Z" fill="#D1F6FF"/>
<path d="M134.43 286.34L307.04 286.64" stroke="black" stroke-width="2" stroke-miterlimit="10"/>
<path d="M242.87 352.87C245.398 352.866 247.902 353.36 250.239 354.324C252.576 355.288 254.7 356.702 256.491 358.487C258.281 360.272 259.702 362.392 260.673 364.726C261.644 367.06 262.146 369.562 262.15 372.09L223.65 372.16C223.642 367.054 225.662 362.153 229.266 358.536C232.871 354.919 237.764 352.881 242.87 352.87V352.87Z" fill="#D1F6FF"/>
<path d="M202.77 361.22C205.687 361.22 208.485 362.379 210.548 364.442C212.611 366.505 213.77 369.303 213.77 372.22H191.82C191.82 369.311 192.972 366.521 195.024 364.459C197.076 362.398 199.861 361.233 202.77 361.22V361.22Z" fill="#D1F6FF"/>
<path d="M223.62 352C226.263 351.995 228.881 352.51 231.325 353.517C233.769 354.524 235.99 356.003 237.862 357.868C239.734 359.734 241.221 361.95 242.236 364.39C243.251 366.831 243.776 369.447 243.78 372.09L203.52 372.16C203.516 369.517 204.033 366.898 205.041 364.454C206.049 362.011 207.528 359.789 209.395 357.917C211.261 356.045 213.478 354.559 215.919 353.544C218.36 352.529 220.976 352.004 223.62 352V352Z" fill="#D1F6FF"/>
<path d="M265.69 372.08L186.56 372.22" stroke="black" stroke-width="2" stroke-miterlimit="10"/>
<path d="M819.58 252.25C816.103 252.25 812.704 251.219 809.813 249.287C806.922 247.356 804.669 244.61 803.338 241.398C802.008 238.185 801.659 234.65 802.338 231.24C803.016 227.83 804.69 224.698 807.149 222.239C809.608 219.78 812.74 218.106 816.15 217.428C819.561 216.749 823.095 217.098 826.308 218.428C829.52 219.759 832.266 222.012 834.197 224.903C836.129 227.794 837.16 231.193 837.16 234.67" stroke="white" stroke-width="1.5" stroke-miterlimit="10"/>
<path d="M819.58 252.25C823.059 252.248 826.461 253.278 829.355 255.21C832.249 257.141 834.505 259.888 835.838 263.102C837.171 266.316 837.521 269.853 836.843 273.266C836.166 276.678 834.491 279.813 832.032 282.274C829.572 284.735 826.438 286.412 823.025 287.091C819.613 287.771 816.076 287.423 812.861 286.092C809.646 284.761 806.898 282.506 804.965 279.614C803.032 276.721 802 273.319 802 269.84" stroke="white" stroke-width="1.5" stroke-miterlimit="10"/>
<path d="M819.58 207V297.51" stroke="white" stroke-width="1.5" stroke-miterlimit="10"/>
</svg>
