<svg width="200" height="200" viewBox="0 0 809 814" fill="none" xmlns="http://www.w3.org/2000/svg">
<path d="M127 82H681.258V732.962H127V82Z" fill="#EDEEEF"/>
<path d="M184.18 149.154H624.069V665.79H184.18V149.154Z" fill="#FFFA7B"/>
<path d="M334.409 298.453L340.129 426.977L391.629 443.977L447.129 426.977L474.318 255.186L407.629 226.477L334.409 220.803L300.629 242.977L334.409 298.453Z" fill="#EDEEEF"/>
<path d="M413.439 337.535C415.507 337.535 417.183 335.859 417.183 333.791C417.183 331.724 415.507 330.048 413.439 330.048C411.372 330.048 409.696 331.724 409.696 333.791C409.696 335.859 411.372 337.535 413.439 337.535Z" fill="black"/>
<path d="M355.985 337.535C358.052 337.535 359.728 335.859 359.728 333.791C359.728 331.724 358.052 330.048 355.985 330.048C353.917 330.048 352.241 331.724 352.241 333.791C352.241 335.859 353.917 337.535 355.985 337.535Z" fill="black"/>
<path d="M372.835 356.102V298.453H343.958" stroke="black" stroke-width="2" stroke-miterlimit="10"/>
<path d="M420.493 298.453H391.606" stroke="black" stroke-width="2" stroke-miterlimit="10"/>
<path d="M465.105 327.995V348.013C467.674 348.015 470.217 347.51 472.59 346.528C474.962 345.546 477.119 344.106 478.935 342.291C480.751 340.475 482.192 338.32 483.175 335.947C484.158 333.575 484.664 331.032 484.664 328.464C484.664 327.874 484.637 327.284 484.584 326.694C483.487 314.551 465.105 315.799 465.105 327.995V327.995Z" fill="#EDEEEF"/>
<path d="M465.105 348.014C467.674 348.015 470.217 347.51 472.59 346.528C474.962 345.546 477.119 344.106 478.935 342.291C480.751 340.475 482.192 338.32 483.175 335.947C484.158 333.575 484.664 331.032 484.664 328.464" stroke="black" stroke-width="2" stroke-miterlimit="10"/>
<path d="M448.202 439.363L474.318 445.788" stroke="black" stroke-width="2" stroke-miterlimit="10"/>
<path d="M372.835 356.156L385.473 359.262" stroke="black" stroke-width="2" stroke-miterlimit="10" stroke-linecap="round"/>
<path d="M334.409 330.048C334.409 330.048 306.319 412.406 343.949 439.337C381.579 466.267 493.514 450.594 463.141 340.075" stroke="black" stroke-width="2" stroke-miterlimit="10"/>
<path d="M351.029 357.625C351.029 357.625 347.347 364.448 355.454 366.253C363.56 368.059 375.809 352.138 386.358 360.811C386.358 360.811 388.73 348.571 415.085 355.89C441.44 363.209 432.387 345.81 432.387 345.81" stroke="black" stroke-width="2" stroke-miterlimit="10"/>
<path d="M383.199 371.802C385.561 372.888 388.115 373.497 390.713 373.595C393.311 373.693 395.903 373.278 398.341 372.374C400.778 371.47 403.014 370.095 404.92 368.326C406.826 366.558 408.364 364.431 409.448 362.067" stroke="#FD9EB0" stroke-width="2" stroke-miterlimit="10"/>
<path d="M324.337 258.664C324.337 258.664 333.824 299.462 420.493 275.222C420.493 275.222 425.732 297.445 440.644 298.453C455.556 299.462 454.946 314.383 454.946 314.383" stroke="black" stroke-width="2" stroke-miterlimit="10"/>
<path d="M334.409 298.453C334.409 298.453 243.944 220.414 350.197 216.458C456.45 212.502 513.975 245.451 474.885 318.233" stroke="black" stroke-width="2" stroke-miterlimit="10"/>
<path d="M231.784 648.037V681.826L664.611 701.969V719.669C664.609 661.04 644.95 604.104 608.777 557.965C572.603 511.825 522.005 479.146 465.07 465.152C346.392 435.947 231.784 525.828 231.784 648.037V648.037Z" fill="#FD9EB0"/>
<path d="M279.609 522.615L155.444 608.522" stroke="black" stroke-width="2" stroke-miterlimit="10"/>
</svg>
