<svg width="200" height="200" viewBox="0 0 809 814" fill="none" xmlns="http://www.w3.org/2000/svg">
<path d="M104.449 603.655H529.486L366.525 240.893H104.449V603.655Z" fill="#FD9EB0"/>
<path d="M705.318 603.64H428.112V551.817H705.318V603.64Z" fill="#FFFA7B"/>
<path d="M659.022 551.817H381.816V499.994H659.022V551.817Z" fill="#FFFA7B"/>
<path d="M612.74 500.008H335.534V448.185H612.74V500.008Z" fill="#FFFA7B"/>
<path d="M566.444 448.185H289.238V396.362H566.444V448.185Z" fill="#FFFA7B"/>
<path d="M520.162 396.362H242.956V344.539H520.162V396.362Z" fill="#FFFA7B"/>
<path d="M473.881 344.539H196.675V292.716H473.881V344.539Z" fill="#FFFA7B"/>
<path d="M427.584 292.73H150.378V240.907H427.584V292.73Z" fill="#FFFA7B"/>
<path d="M705.303 551.832H428.112V603.655H705.303" stroke="black" stroke-width="2" stroke-miterlimit="10"/>
<path d="M659.022 500.008H381.816V551.831H659.022" stroke="black" stroke-width="2" stroke-miterlimit="10"/>
<path d="M612.74 448.185H335.534V500.008H612.74" stroke="black" stroke-width="2" stroke-miterlimit="10"/>
<path d="M566.444 396.362H289.253V448.185H566.444" stroke="black" stroke-width="2" stroke-miterlimit="10"/>
<path d="M520.162 344.539H242.956V396.362H520.162" stroke="black" stroke-width="2" stroke-miterlimit="10"/>
<path d="M473.881 292.716H196.675V344.539" stroke="black" stroke-width="2" stroke-miterlimit="10"/>
<path d="M427.599 240.893H150.393V292.716H427.599" stroke="black" stroke-width="2" stroke-miterlimit="10"/>
<path d="M721.752 603.655H88" stroke="black" stroke-width="2" stroke-miterlimit="10"/>
<path d="M494.815 186.094V240.893H440.016" stroke="black" stroke-width="2" stroke-miterlimit="10"/>
<path d="M314.937 61L494.815 240.893" stroke="black" stroke-width="2" stroke-miterlimit="10"/>
</svg>
