<svg width="809" height="814" viewBox="0 0 809 814" fill="none" xmlns="http://www.w3.org/2000/svg">
<path d="M22 612H786" stroke="black" stroke-width="2" stroke-miterlimit="10"/>
<path d="M692.109 587H667L791.321 202L808 218.603L692.109 587Z" fill="#FD9EB0"/>
<path d="M666.82 587H214L338.19 202H791L666.82 587Z" fill="#EDEEEF"/>
<path d="M644.031 565H254L360.969 237H751L644.031 565Z" fill="#FFFA7B"/>
<path d="M254 565L360.969 237H751" stroke="black" stroke-width="2" stroke-miterlimit="10"/>
<path d="M684.016 612H0V565H698L684.016 612Z" fill="black"/>
<path d="M684.016 612H0V565H698L684.016 612Z" fill="#FD9EB0"/>
<path d="M543.948 583.128H524.233C521.999 583.128 520.188 585.561 520.188 588.563C520.188 591.564 521.999 593.997 524.233 593.997H543.948C546.181 593.997 547.992 591.564 547.992 588.563C547.992 585.561 546.181 583.128 543.948 583.128Z" fill="#D6D6D6"/>
<path d="M594.5 583.128H574.784C572.551 583.128 570.74 585.561 570.74 588.563C570.74 591.564 572.551 593.997 574.784 593.997H594.5C596.733 593.997 598.544 591.564 598.544 588.563C598.544 585.561 596.733 583.128 594.5 583.128Z" fill="#D6D6D6"/>
<path d="M645.051 583.128H625.336C623.103 583.128 621.292 585.561 621.292 588.563C621.292 591.564 623.103 593.997 625.336 593.997H645.051C647.285 593.997 649.096 591.564 649.096 588.563C649.096 585.561 647.285 583.128 645.051 583.128Z" fill="#D6D6D6"/>
</svg>
